<?xml version="1.0" encoding="UTF-8"?>
<svg version="1.1" xmlns="http://www.w3.org/2000/svg" width="1024" height="1024">
<path d="M0 0 C1.1917131 0.00022659 1.1917131 0.00022659 2.40750122 0.00045776 C15.20824845 0.04830651 26.70584747 1.20876977 38.5 6.5625 C39.12293945 6.8404541 39.74587891 7.1184082 40.38769531 7.40478516 C48.41679022 11.10701774 55.56407755 16.12298916 62.5 21.5625 C63.18449219 22.08070313 63.86898437 22.59890625 64.57421875 23.1328125 C73.06819115 29.99001537 79.57793539 39.47185409 85.5 48.5625 C86.04785156 47.72589844 86.59570312 46.88929688 87.16015625 46.02734375 C92.00451969 38.84004345 97.25583033 32.39901564 103.375 26.25 C104.01703369 25.59829834 104.65906738 24.94659668 105.32055664 24.27514648 C110.39120891 19.29505346 110.39120891 19.29505346 114.5 18.5625 C114.5 17.9025 114.5 17.2425 114.5 16.5625 C122.59937851 10.71043508 132.08469031 6.7604064 141.5 3.5625 C142.24757568 3.29034668 142.99515137 3.01819336 143.76538086 2.73779297 C151.94545543 0.0923821 159.97136088 0.10514162 168.47875977 0.17138672 C170.9297673 0.18744932 173.37912093 0.17147844 175.83007812 0.15234375 C187.91976545 0.13452341 198.54409584 1.79774374 209.625 6.875 C210.30457764 7.18131348 210.98415527 7.48762695 211.68432617 7.80322266 C237.01496223 19.43128832 254.02275795 39.43983125 264.85546875 64.7265625 C270.83239437 81.35203378 270.91515846 98.20941101 270.79296875 115.62890625 C270.78736032 118.00357289 270.78309613 120.37824305 270.78010559 122.75291443 C270.76875493 128.94568792 270.73937391 135.13824393 270.70599365 141.33093262 C270.67507981 147.6730658 270.66155508 154.01523476 270.64648438 160.35742188 C270.61449318 172.75922458 270.56180718 185.16081002 270.5 197.5625 C279.41 197.5625 288.32 197.5625 297.5 197.5625 C297.61350653 213.10660811 297.70534054 228.65050629 297.75906086 244.19491863 C297.78468336 251.4148476 297.819522 258.63449806 297.87719727 265.85424805 C297.92752807 272.15770791 297.95940641 278.46096581 297.97044247 284.76462108 C297.97687905 288.09288026 297.99441155 291.4201106 298.02865028 294.74826622 C298.30313086 322.56598381 293.14998297 344.88319585 278.5 368.5625 C277.97921875 369.49707031 277.4584375 370.43164062 276.921875 371.39453125 C276.45265625 372.10996094 275.9834375 372.82539062 275.5 373.5625 C274.84 373.5625 274.18 373.5625 273.5 373.5625 C273.41685547 374.36494141 273.41685547 374.36494141 273.33203125 375.18359375 C272.10999141 378.677595 269.69491594 380.99195967 267.1875 383.625 C266.37889526 384.48218628 266.37889526 384.48218628 265.55395508 385.35668945 C249.2431539 402.45966856 231.6957725 414.19425692 209.3125 421.875 C208.26292114 422.23899902 208.26292114 422.23899902 207.19213867 422.61035156 C195.78212156 426.34372289 184.45337784 426.91056978 172.55566406 426.87817383 C170.1356087 426.87501385 167.71678034 426.89855945 165.296875 426.92382812 C155.60632024 426.96391085 146.898875 426.11564771 137.5 423.5625 C136.67628906 423.34343994 135.85257813 423.12437988 135.00390625 422.89868164 C118.90591289 418.34623453 104.68853215 410.78483812 91.5 400.5625 C90.51 399.9025 89.52 399.2425 88.5 398.5625 C88.5 397.9025 88.5 397.2425 88.5 396.5625 C83.80424927 397.0363831 81.06910342 399.20022661 77.5625 402.125 C58.45927248 417.32749719 34.5800303 426.69309024 10.046875 426.73046875 C9.265401 426.73379715 8.483927 426.73712555 7.67877197 426.74055481 C6.0350401 426.7455848 4.39129815 426.74796436 2.74755859 426.74780273 C0.27033107 426.74998211 -2.20644512 426.76816039 -4.68359375 426.78710938 C-17.08827661 426.83343472 -28.42920938 425.72070882 -40.1875 421.5 C-41.03908691 421.19618408 -41.89067383 420.89236816 -42.76806641 420.5793457 C-56.72032471 415.42668515 -70.07047776 408.1444608 -81.5 398.5625 C-81.5 397.9025 -81.5 397.2425 -81.5 396.5625 C-82.03496094 396.35367187 -82.56992187 396.14484375 -83.12109375 395.9296875 C-86.43393941 394.02575321 -88.91374815 391.39800189 -91.5625 388.6875 C-92.09166016 388.15769531 -92.62082031 387.62789062 -93.16601562 387.08203125 C-100.5 379.66522898 -100.5 379.66522898 -100.5 376.5625 C-101.16 376.5625 -101.82 376.5625 -102.5 376.5625 C-105.09999202 373.07755028 -107.2467409 369.27832079 -109.5 365.5625 C-110.37591797 364.19158203 -110.37591797 364.19158203 -111.26953125 362.79296875 C-125.73532294 339.44524627 -128.12401425 314.95310833 -127.92578125 288.05078125 C-127.92084627 285.4585953 -127.91755462 282.86640576 -127.91581726 280.2742157 C-127.90823908 274.88963336 -127.88840795 269.50533896 -127.85668945 264.12084961 C-127.81600373 257.20492025 -127.79893298 250.28913968 -127.78938007 243.37310505 C-127.78021938 236.76564093 -127.75957001 230.15821658 -127.73828125 223.55078125 C-127.7348855 222.28822321 -127.73148975 221.02566517 -127.7279911 219.72484779 C-127.71648616 216.18280464 -127.69798593 212.64087505 -127.67700195 209.09887695 C-127.67431305 208.03985672 -127.67162415 206.98083649 -127.66885376 205.88972473 C-127.66169846 204.93279724 -127.65454315 203.97586975 -127.64717102 202.98994446 C-127.6407608 201.73609436 -127.6407608 201.73609436 -127.63422108 200.45691395 C-127.5 198.5625 -127.5 198.5625 -126.5 197.5625 C-124.50035018 197.47491997 -122.4976389 197.45553424 -120.49609375 197.46484375 C-119.28115234 197.46806641 -118.06621094 197.47128906 -116.81445312 197.47460938 C-115.53505859 197.48298828 -114.25566406 197.49136719 -112.9375 197.5 C-111.65423828 197.50451172 -110.37097656 197.50902344 -109.04882812 197.51367188 C-105.86583978 197.52550455 -102.68294238 197.54198932 -99.5 197.5625 C-99.50276538 197.01457007 -99.50553076 196.46664015 -99.50837994 195.90210629 C-99.57494665 182.50283021 -99.62423645 169.10358353 -99.65543652 155.7041769 C-99.67103612 149.22402687 -99.69216949 142.74399695 -99.72631836 136.26391602 C-99.75911607 130.00043127 -99.77689583 123.73706144 -99.78463173 117.47349739 C-99.79013878 115.09391536 -99.80089182 112.71433902 -99.81719017 110.33480644 C-99.90014673 97.71158728 -99.80082174 85.81124675 -96.5 73.5625 C-96.30264755 72.79601639 -96.1052951 72.02953278 -95.90196228 71.23982239 C-91.87863564 56.65892639 -84.14203963 40.63129103 -72.5 30.5625 C-71.16666667 29.89583333 -69.83333333 29.22916667 -68.5 28.5625 C-68.005 27.0775 -68.005 27.0775 -67.5 25.5625 C-66.84 25.5625 -66.18 25.5625 -65.5 25.5625 C-65.005 24.0775 -65.005 24.0775 -64.5 22.5625 C-47.47264782 6.2083222 -22.87579197 -0.08287792 0 0 Z " fill="#030302" transform="translate(444.5,304.4375)"/>
<path d="M0 0 C0.33 0 0.66 0 1 0 C0.67 38.28 0.34 76.56 0 116 C9.57 116 19.14 116 29 116 C29 153.62 29 191.24 29 230 C37.91 230 46.82 230 56 230 C56 173.57 56 117.14 56 59 C65.57 59 75.14 59 85 59 C85 131.93 85 204.86 85 280 C93.91 280 102.82 280 112 280 C111.99777939 276.61964005 111.99555878 273.23928009 111.99327087 269.75648499 C111.97339167 238.79160868 111.95845275 207.82673358 111.94893467 176.86185235 C111.94768389 172.807397 111.94638958 168.75294166 111.94506836 164.69848633 C111.94467489 163.48768081 111.94467489 163.48768081 111.94427348 162.25241458 C111.93991657 149.16483827 111.93202891 136.07726634 111.9228472 122.98969264 C111.91351123 109.57079083 111.90794451 96.15189131 111.90591151 82.73298639 C111.90453616 74.44603469 111.90018495 66.15909534 111.89208353 57.87214743 C111.88681677 52.19731615 111.88519554 46.5224913 111.88649862 40.84765775 C111.88714211 37.56861768 111.88558482 34.28960398 111.88079453 31.01056671 C111.87586463 27.46385969 111.8769991 23.91720677 111.87974548 20.37049866 C111.87537622 18.79903386 111.87537622 18.79903386 111.87091869 17.1958223 C111.87390526 15.78206052 111.87390526 15.78206052 111.87695217 14.33973789 C111.87657245 13.5199217 111.87619273 12.70010551 111.8758015 11.8554464 C112 10 112 10 113 9 C122.57 9 132.14 9 142 9 C142 65.43 142 121.86 142 180 C150.91 180 159.82 180 169 180 C169 156.24 169 132.48 169 108 C178.57 108 188.14 108 198 108 C198 148.26 198 188.52 198 230 C207.24 230 216.48 230 226 230 C226 173.57 226 117.14 226 59 C235.57 59 245.14 59 255 59 C255 131.93 255 204.86 255 280 C263.91 280 272.82 280 282 280 C282 190.9 282 101.8 282 10 C291.57 10 301.14 10 311 10 C311 66.1 311 122.2 311 180 C320.24 180 329.48 180 339 180 C339 158.88 339 137.76 339 116 C348.57 116 358.14 116 368 116 C368.04529528 130.37846474 368.08194178 144.75688161 368.10362434 159.13540173 C368.11389975 165.81287077 368.12814179 172.49028503 368.15087891 179.16772461 C368.17270767 185.61922522 368.18458973 192.07067637 368.18975449 198.52221107 C368.19343228 200.97600393 368.20061382 203.42979426 368.21146011 205.8835659 C368.34364878 237.04552 368.34364878 237.04552 363 248 C362.4842606 249.3534819 361.9849819 250.71331991 361.5 252.078125 C361.2525 252.76390625 361.005 253.4496875 360.75 254.15625 C360.24503636 255.56594016 359.74512704 256.97744991 359.25 258.390625 C357.96357527 261.92829301 356.88494271 264.54245621 354 267 C353.690625 267.804375 353.38125 268.60875 353.0625 269.4375 C351.82686487 272.41756119 350.28880275 273.73975629 348 276 C346.610042 277.71716601 345.23601732 279.44730627 343.875 281.1875 C333.36050108 294.0613499 320.52103762 303.51150253 304.828125 309.0078125 C302.55147363 309.80652721 300.47140146 310.69072592 298.3125 311.75 C293.91847677 313.40812197 289.66257055 313.72793854 285 314 C285 314.66 285 315.32 285 316 C280.57089728 316.04973511 276.14194603 316.08587704 271.71264648 316.10986328 C270.20838587 316.11987124 268.70414447 316.1334818 267.19995117 316.15087891 C265.02778357 316.17535809 262.85587496 316.18653523 260.68359375 316.1953125 C259.37962646 316.20578613 258.07565918 316.21625977 256.73217773 316.22705078 C252.86279698 315.99165312 249.67668937 315.19826995 246 314 C244.82014526 313.63853882 244.82014526 313.63853882 243.61645508 313.26977539 C241.34581437 312.54197543 239.07864402 311.8041811 236.8125 311.0625 C236.01908203 310.81048828 235.22566406 310.55847656 234.40820312 310.29882812 C230.40214758 308.98365792 227.26346638 307.75306643 224 305 C222.948125 304.566875 221.89625 304.13375 220.8125 303.6875 C207.50785981 298.13450399 191.54525934 284.09051868 185 271 C181.3341572 272.2219476 180.51288118 273.58870347 178.1875 276.625 C177.47335937 277.53507812 176.75921875 278.44515625 176.0234375 279.3828125 C174.87337002 280.87035151 173.72871869 282.3622136 172.6015625 283.8671875 C158.29543065 301.98828785 132.46440902 313.22945206 110 316 C99.57027282 316.81300306 89.20781341 316.34256231 79 314 C78.34837891 313.8551416 77.69675781 313.7102832 77.02539062 313.56103516 C74.86722711 313.07678118 72.714366 312.57397919 70.5625 312.0625 C69.88743408 311.90491211 69.21236816 311.74732422 68.5168457 311.58496094 C64.50874721 310.58356344 61.49086055 309.15278726 58 307 C56.73323928 306.53478508 55.45894004 306.08983123 54.1796875 305.66015625 C49.56810023 303.99215832 45.98066909 301.42311377 42.125 298.4375 C41.42810059 297.90302246 40.73120117 297.36854492 40.01318359 296.81787109 C23.29867334 283.79101177 10.62405422 266.62162701 3.82421875 246.4375 C3.03920894 244.00413536 3.03920894 244.00413536 2.01803589 241.73878479 C-2.85685113 228.6240542 -1.25914813 212.84345471 -1.1953125 199.12890625 C-1.19157493 196.7513796 -1.18873148 194.37385139 -1.18673706 191.99632263 C-1.17915916 185.7871361 -1.15956186 179.57804552 -1.1373291 173.36889648 C-1.11674374 167.01352231 -1.10770839 160.65813239 -1.09765625 154.30273438 C-1.07630963 141.86844099 -1.04117614 129.43424354 -1 117 C-9.91 117 -18.82 117 -28 117 C-27.89157771 130.83970423 -27.77937592 144.679364 -27.66066074 158.51898384 C-27.60567505 164.9463962 -27.55229625 171.37381326 -27.50268555 177.80126953 C-27.45467996 184.01290381 -27.40232828 190.22448811 -27.34705925 196.43606186 C-27.32679837 198.79690163 -27.30806035 201.15775501 -27.29092598 203.51861954 C-27.4986319 227.24822727 -27.4986319 227.24822727 -22.9375 250.375 C-22.63239502 251.35525146 -22.32729004 252.33550293 -22.01293945 253.34545898 C-19.58219474 260.86006604 -16.47913149 267.80061347 -12.69921875 274.72265625 C-11.11536849 277.77748468 -9.98638733 280.71037322 -9 284 C-13.95865796 279.45633702 -16.23539334 274.04244476 -19 268 C-19.52078125 266.87207031 -20.0415625 265.74414062 -20.578125 264.58203125 C-28.8815104 245.35424232 -29.57825478 226.18056087 -29.42578125 205.48828125 C-29.42084627 202.8960953 -29.41755462 200.30390576 -29.41581726 197.7117157 C-29.40823908 192.32713336 -29.38840795 186.94283896 -29.35668945 181.55834961 C-29.31600373 174.64242025 -29.29893298 167.72663968 -29.28938007 160.81060505 C-29.28021938 154.20314093 -29.25957001 147.59571658 -29.23828125 140.98828125 C-29.2348855 139.72572321 -29.23148975 138.46316517 -29.2279911 137.16234779 C-29.21648616 133.62030464 -29.19798593 130.07837505 -29.17700195 126.53637695 C-29.17431305 125.47735672 -29.17162415 124.41833649 -29.16885376 123.32722473 C-29.16169846 122.37029724 -29.15454315 121.41336975 -29.14717102 120.42744446 C-29.1407608 119.17359436 -29.1407608 119.17359436 -29.13422108 117.89441395 C-29 116 -29 116 -28 115 C-26.00035018 114.91241997 -23.9976389 114.89303424 -21.99609375 114.90234375 C-20.17368164 114.90717773 -20.17368164 114.90717773 -18.31445312 114.91210938 C-17.03505859 114.92048828 -15.75566406 114.92886719 -14.4375 114.9375 C-13.15423828 114.94201172 -11.87097656 114.94652344 -10.54882812 114.95117188 C-7.36583978 114.96300455 -4.18294238 114.97948932 -1 115 C-1.00092179 114.44377394 -1.00184359 113.88754787 -1.00279331 113.31446648 C-1.02489637 99.76810377 -1.04137101 86.22174424 -1.05181217 72.67536736 C-1.05703118 66.12439171 -1.06411107 59.57342909 -1.07543945 53.02246094 C-1.08630313 46.70067339 -1.09228424 40.37889836 -1.09487724 34.0571022 C-1.0967252 31.64497811 -1.10033376 29.2328547 -1.10573006 26.82073593 C-1.11298661 23.44281278 -1.11398898 20.0649414 -1.11352539 16.68701172 C-1.11712067 15.68935287 -1.12071594 14.69169403 -1.12442017 13.6638031 C-1.11748134 8.992751 -0.97102037 4.5941531 0 0 Z " fill="#FAFAFA" transform="translate(346,387)"/>
<path d="M0 0 C7.93523624 6.808072 8.95357181 22.10398946 10 32 C10.49514496 40.34491175 10.35157706 48.71114258 10.29296875 57.06640625 C10.28736032 59.44107289 10.28309613 61.81574305 10.28010559 64.19041443 C10.26875493 70.38318792 10.23937391 76.57574393 10.20599365 82.76843262 C10.17507981 89.1105658 10.16155508 95.45273476 10.14648438 101.79492188 C10.11449318 114.19672458 10.06180718 126.59831002 10 139 C18.91 139 27.82 139 37 139 C37.11350653 154.54410811 37.20534054 170.08800629 37.25906086 185.63241863 C37.28468336 192.8523476 37.319522 200.07199806 37.37719727 207.29174805 C37.42752807 213.59520791 37.45940641 219.89846581 37.47044247 226.20212108 C37.47687905 229.53038026 37.49441155 232.8576106 37.52865028 236.18576622 C37.80313086 264.00348381 32.64998297 286.32069585 18 310 C17.47921875 310.93457031 16.9584375 311.86914062 16.421875 312.83203125 C15.95265625 313.54746094 15.4834375 314.26289062 15 315 C14.34 315 13.68 315 13 315 C12.91685547 315.80244141 12.91685547 315.80244141 12.83203125 316.62109375 C11.60999141 320.115095 9.19491594 322.42945967 6.6875 325.0625 C5.87889526 325.91968628 5.87889526 325.91968628 5.05395508 326.79418945 C-11.2568461 343.89716856 -28.8042275 355.63175692 -51.1875 363.3125 C-52.23707886 363.67649902 -52.23707886 363.67649902 -53.30786133 364.04785156 C-64.71787844 367.78122289 -76.04662216 368.34806978 -87.94433594 368.31567383 C-90.3643913 368.31251385 -92.78321966 368.33605945 -95.203125 368.36132812 C-104.89367976 368.40141085 -113.601125 367.55314771 -123 365 C-123.82371094 364.78093994 -124.64742187 364.56187988 -125.49609375 364.33618164 C-141.59408711 359.78373453 -155.81146785 352.22233812 -169 342 C-169.99 341.34 -170.98 340.68 -172 340 C-172 339.34 -172 338.68 -172 338 C-176.69575073 338.4738831 -179.43089658 340.63772661 -182.9375 343.5625 C-202.04072752 358.76499719 -225.9199697 368.13059024 -250.453125 368.16796875 C-251.234599 368.17129715 -252.016073 368.17462555 -252.82122803 368.17805481 C-254.4649599 368.1830848 -256.10870185 368.18546436 -257.75244141 368.18530273 C-260.22966893 368.18748211 -262.70644512 368.20566039 -265.18359375 368.22460938 C-277.58827661 368.27093472 -288.92920938 367.15820882 -300.6875 362.9375 C-301.53908691 362.63368408 -302.39067383 362.32986816 -303.26806641 362.0168457 C-317.22032471 356.86418515 -330.57047776 349.5819608 -342 340 C-342 339.34 -342 338.68 -342 338 C-342.53496094 337.79117187 -343.06992187 337.58234375 -343.62109375 337.3671875 C-346.93393941 335.46325321 -349.41374815 332.83550189 -352.0625 330.125 C-352.59166016 329.59519531 -353.12082031 329.06539062 -353.66601562 328.51953125 C-361 321.10272898 -361 321.10272898 -361 318 C-361.66 318 -362.32 318 -363 318 C-364.18359375 316.53125 -364.18359375 316.53125 -365.4375 314.5 C-365.84871094 313.8503125 -366.25992187 313.200625 -366.68359375 312.53125 C-367.78984443 310.40409736 -368.61593922 308.40607115 -369.42578125 306.16015625 C-370.61959648 302.87363519 -372.07378508 299.85027172 -373.75366211 296.77685547 C-377.65808336 289.56884035 -380.50084527 282.19655899 -382.9375 274.375 C-383.23172852 273.458396 -383.52595703 272.54179199 -383.82910156 271.59741211 C-388.383219 256.32113028 -387.13392823 239.78028892 -387.09765625 224.0078125 C-387.09578785 221.60643544 -387.09436594 219.205058 -387.09336853 216.80368042 C-387.08957654 210.52710898 -387.0797751 204.25056121 -387.06866455 197.97399902 C-387.05837857 191.55167969 -387.05385561 185.12935647 -387.04882812 178.70703125 C-387.03814942 166.13800884 -387.02058002 153.5690101 -387 141 C-378.09 141 -369.18 141 -360 141 C-359.98541748 144.14184814 -359.97083496 147.28369629 -359.95581055 150.52075195 C-359.9051863 160.97018759 -359.83854439 171.41947854 -359.76428509 181.86877155 C-359.71979915 188.19627388 -359.68049655 194.52371504 -359.65356445 200.85131836 C-359.62731236 206.97229392 -359.58675962 213.09303123 -359.53681374 219.21385765 C-359.52029173 221.53426305 -359.50868715 223.85470951 -359.50238609 226.17516518 C-359.46990521 237.04997493 -359.33111713 247.80626407 -357.71801758 258.57885742 C-357.61065372 259.32118527 -357.50328985 260.06351313 -357.39267254 260.82833576 C-356.60381277 265.43040136 -355.12921906 269.19420385 -352.91073132 273.30077076 C-351.80476734 275.36426225 -351.02631774 277.48133173 -350.25 279.6875 C-343.08747812 297.85856718 -329.20023175 313.41550354 -313 324 C-312.29617188 324.47566406 -311.59234375 324.95132812 -310.8671875 325.44140625 C-306.42005747 328.36256029 -302.0178886 330.28127438 -297 332 C-295.74963801 332.49909407 -294.49964356 332.99910981 -293.25 333.5 C-267.634961 343.06160591 -240.85707797 340.25637648 -216.3515625 329.13671875 C-210.46164493 326.32683813 -205.19963304 322.95804194 -200 319 C-199.05769531 318.30132813 -198.11539063 317.60265625 -197.14453125 316.8828125 C-190.39509637 311.65083677 -185.17441223 305.76259816 -180 299 C-178.66976162 297.33086207 -177.33734288 295.6634511 -176 294 C-172.06076925 295.31307692 -170.65547123 297.83256282 -168.3125 301.0625 C-159.23872022 313.15922476 -148.10083574 323.38129432 -133.91796875 329.1875 C-132.6325954 329.73201661 -131.36340809 330.31631896 -130.11328125 330.9375 C-124.36974323 333.73815854 -118.51686903 335.25561518 -112.32055664 336.69311523 C-107.08862762 337.91137238 -107.08862762 337.91137238 -106 339 C-103.62661361 339.15971977 -101.27881728 339.2592433 -98.90234375 339.31640625 C-98.19348526 339.33718735 -97.48462677 339.35796844 -96.75428772 339.37937927 C-94.48212695 339.44494598 -92.20984736 339.5037923 -89.9375 339.5625 C-88.40037817 339.60567849 -86.8632685 339.64929255 -85.32617188 339.69335938 C-81.5509041 339.80063449 -77.7755164 339.90188137 -74 340 C-74 339.34 -74 338.68 -74 338 C-72.97261719 337.76925781 -71.94523437 337.53851562 -70.88671875 337.30078125 C-62.42709734 335.33533194 -54.77983551 332.95389666 -47 329 C-46.319375 328.69449219 -45.63875 328.38898438 -44.9375 328.07421875 C-32.23706887 322.26172305 -21.19935827 312.32326414 -12.82421875 301.296875 C-11 299 -11 299 -8.84765625 296.875 C-6.74070552 294.73686818 -5.94149682 292.82449047 -5 290 C-4.34 290 -3.68 290 -3 290 C-2.608125 288.824375 -2.21625 287.64875 -1.8125 286.4375 C5 266 5 266 6.08984375 263.04296875 C8.15403993 256.14164332 8.14543629 249.12646325 8.12939453 241.98486328 C8.13112136 241.0087078 8.13284819 240.03255232 8.13462734 239.02681637 C8.13896531 235.79129785 8.13603196 232.55583168 8.1328125 229.3203125 C8.13387076 227.02143843 8.13525618 224.72256449 8.13694763 222.4236908 C8.13975033 216.26538755 8.13536567 210.10711023 8.12877274 203.94881058 C8.1250002 200.12520567 8.12293487 196.3016032 8.12130737 192.47799683 C8.1054833 161.00418777 8.00322882 129.53345652 7.5625 98.0625 C7.5526432 97.34009377 7.54278641 96.61768753 7.53263092 95.8733902 C7.31646279 80.07785624 6.98554281 64.2864112 6.52734375 48.49609375 C6.47170006 46.52117699 6.47170006 46.52117699 6.41493225 44.50636292 C6.20845216 37.78264343 5.94558005 31.06159121 5.59204102 24.34399414 C5.52719009 23.05682999 5.46233917 21.76966583 5.39552307 20.4434967 C4.86238351 15.80188551 3.57600946 12.86401419 1 9 C0.5859375 6.73828125 0.5859375 6.73828125 0.375 4.3125 C0.26285156 3.10013672 0.26285156 3.10013672 0.1484375 1.86328125 C0.09945313 1.24839844 0.05046875 0.63351562 0 0 Z " fill="#070803" transform="translate(705,363)"/>
<path d="M0 0 C9.57 0 19.14 0 29 0 C29 56.43 29 112.86 29 171 C28.67 171 28.34 171 28 171 C28 115.23 28 59.46 28 2 C19.09 2 10.18 2 1 2 C1 90.77 1 179.54 1 271 C0.34 271 -0.32 271 -1 271 C-1.02286533 236.62061886 -1.04049769 202.24123945 -1.05106533 167.86185235 C-1.05231611 163.807397 -1.05361042 159.75294166 -1.05493164 155.69848633 C-1.05532511 154.48768081 -1.05532511 154.48768081 -1.05572652 153.25241458 C-1.06008343 140.16483827 -1.06797109 127.07726634 -1.0771528 113.98969264 C-1.08648877 100.57079083 -1.09205549 87.15189131 -1.09408849 73.73298639 C-1.09546384 65.44603469 -1.09981505 57.15909534 -1.10791647 48.87214743 C-1.11318323 43.19731615 -1.11480446 37.5224913 -1.11350138 31.84765775 C-1.11285789 28.56861768 -1.11441518 25.28960398 -1.11920547 22.01056671 C-1.12413537 18.46385969 -1.1230009 14.91720677 -1.12025452 11.37049866 C-1.12316736 10.32285546 -1.1260802 9.27521226 -1.12908131 8.1958223 C-1.12609474 6.78206052 -1.12609474 6.78206052 -1.12304783 5.33973789 C-1.12342755 4.5199217 -1.12380727 3.70010551 -1.1241985 2.8554464 C-1 1 -1 1 0 0 Z " fill="#AEAEAE" transform="translate(459,396)"/>
<path d="M0 0 C7.93523624 6.808072 8.95357181 22.10398946 10 32 C10.49514496 40.34491175 10.35157706 48.71114258 10.29296875 57.06640625 C10.28736032 59.44107289 10.28309613 61.81574305 10.28010559 64.19041443 C10.26875493 70.38318792 10.23937391 76.57574393 10.20599365 82.76843262 C10.17507981 89.1105658 10.16155508 95.45273476 10.14648438 101.79492188 C10.11449318 114.19672458 10.06180718 126.59831002 10 139 C18.91 139 27.82 139 37 139 C37.11350653 154.54410811 37.20534054 170.08800629 37.25906086 185.63241863 C37.28468336 192.8523476 37.319522 200.07199806 37.37719727 207.29174805 C37.42752807 213.59520791 37.45940641 219.89846581 37.47044247 226.20212108 C37.47687905 229.53038026 37.49441155 232.8576106 37.52865028 236.18576622 C37.80313086 264.00348381 32.64998297 286.32069585 18 310 C16.99831121 311.66565223 15.99778928 313.33200889 15 315 C14.34 314.67 13.68 314.34 13 314 C13.40089844 313.43796875 13.80179688 312.8759375 14.21484375 312.296875 C27.76569723 292.26250659 35.07395114 269.54530527 35.20532227 245.44335938 C35.21522186 244.31077698 35.22512146 243.17819458 35.23532104 242.0112915 C35.26676581 238.28879852 35.29162588 234.5662928 35.31640625 230.84375 C35.33699049 228.25443196 35.35798734 225.66511716 35.37937927 223.07580566 C35.42882748 216.97038073 35.47413175 210.86493808 35.51740164 204.75946665 C35.56692787 197.80412376 35.62178852 190.84882609 35.67708123 183.89352703 C35.79062612 169.59572583 35.89682011 155.29787967 36 141 C27.42 141 18.84 141 10 141 C10 175.98 10 210.96 10 247 C9.67 247 9.34 247 9 247 C8.98969254 245.82382111 8.97938507 244.64764221 8.96876526 243.43582153 C8.35284596 172.02774323 8.35284596 172.02774323 7.52918625 100.62184906 C7.50057143 98.41899048 7.47303628 96.21612102 7.4458313 94.01324463 C7.25685874 78.83094423 6.97465575 63.6535892 6.53125 48.4765625 C6.49390747 47.161185 6.45656494 45.8458075 6.41809082 44.49057007 C6.20985033 37.77257633 5.94488257 31.05715999 5.59179688 24.34521484 C5.5269812 23.05787445 5.46216553 21.77053406 5.39538574 20.44418335 C4.86248248 15.80209252 3.57624282 12.86436423 1 9 C0.5859375 6.73828125 0.5859375 6.73828125 0.375 4.3125 C0.30023437 3.50425781 0.22546875 2.69601562 0.1484375 1.86328125 C0.09945312 1.24839844 0.05046875 0.63351562 0 0 Z " fill="#5A6D21" transform="translate(705,363)"/>
<path d="M0 0 C0.33 0 0.66 0 1 0 C0.67 38.28 0.34 76.56 0 116 C9.57 116 19.14 116 29 116 C29 153.62 29 191.24 29 230 C28.67 230 28.34 230 28 230 C28 192.71 28 155.42 28 117 C18.76 117 9.52 117 0 117 C0 152.31 0 187.62 0 224 C-0.33 224 -0.66 224 -1 224 C-1 188.69 -1 153.38 -1 117 C-9.91 117 -18.82 117 -28 117 C-27.89157771 130.83970423 -27.77937592 144.679364 -27.66066074 158.51898384 C-27.60567505 164.9463962 -27.55229625 171.37381326 -27.50268555 177.80126953 C-27.45467996 184.01290381 -27.40232828 190.22448811 -27.34705925 196.43606186 C-27.32679837 198.79690163 -27.30806035 201.15775501 -27.29092598 203.51861954 C-27.4986319 227.24822727 -27.4986319 227.24822727 -22.9375 250.375 C-22.63239502 251.35525146 -22.32729004 252.33550293 -22.01293945 253.34545898 C-19.58219474 260.86006604 -16.47913149 267.80061347 -12.69921875 274.72265625 C-11.11536849 277.77748468 -9.98638733 280.71037322 -9 284 C-13.95865796 279.45633702 -16.23539334 274.04244476 -19 268 C-19.52078125 266.87207031 -20.0415625 265.74414062 -20.578125 264.58203125 C-28.8815104 245.35424232 -29.57825478 226.18056087 -29.42578125 205.48828125 C-29.42084627 202.8960953 -29.41755462 200.30390576 -29.41581726 197.7117157 C-29.40823908 192.32713336 -29.38840795 186.94283896 -29.35668945 181.55834961 C-29.31600373 174.64242025 -29.29893298 167.72663968 -29.28938007 160.81060505 C-29.28021938 154.20314093 -29.25957001 147.59571658 -29.23828125 140.98828125 C-29.2348855 139.72572321 -29.23148975 138.46316517 -29.2279911 137.16234779 C-29.21648616 133.62030464 -29.19798593 130.07837505 -29.17700195 126.53637695 C-29.17431305 125.47735672 -29.17162415 124.41833649 -29.16885376 123.32722473 C-29.16169846 122.37029724 -29.15454315 121.41336975 -29.14717102 120.42744446 C-29.1407608 119.17359436 -29.1407608 119.17359436 -29.13422108 117.89441395 C-29 116 -29 116 -28 115 C-26.00035018 114.91241997 -23.9976389 114.89303424 -21.99609375 114.90234375 C-20.17368164 114.90717773 -20.17368164 114.90717773 -18.31445312 114.91210938 C-17.03505859 114.92048828 -15.75566406 114.92886719 -14.4375 114.9375 C-13.15423828 114.94201172 -11.87097656 114.94652344 -10.54882812 114.95117188 C-7.36583978 114.96300455 -4.18294238 114.97948932 -1 115 C-1.00092179 114.44377394 -1.00184359 113.88754787 -1.00279331 113.31446648 C-1.02489637 99.76810377 -1.04137101 86.22174424 -1.05181217 72.67536736 C-1.05703118 66.12439171 -1.06411107 59.57342909 -1.07543945 53.02246094 C-1.08630313 46.70067339 -1.09228424 40.37889836 -1.09487724 34.0571022 C-1.0967252 31.64497811 -1.10033376 29.2328547 -1.10573006 26.82073593 C-1.11298661 23.44281278 -1.11398898 20.0649414 -1.11352539 16.68701172 C-1.11712067 15.68935287 -1.12071594 14.69169403 -1.12442017 13.6638031 C-1.11748134 8.992751 -0.97102037 4.5941531 0 0 Z " fill="#9DB84E" transform="translate(346,387)"/>
<path d="M0 0 C7.93523624 6.808072 8.95357181 22.10398946 10 32 C10.49514496 40.34491175 10.35157706 48.71114258 10.29296875 57.06640625 C10.28736032 59.44107289 10.28309613 61.81574305 10.28010559 64.19041443 C10.26875493 70.38318792 10.23937391 76.57574393 10.20599365 82.76843262 C10.17507981 89.1105658 10.16155508 95.45273476 10.14648438 101.79492188 C10.11449318 114.19672458 10.06180718 126.59831002 10 139 C18.91 139 27.82 139 37 139 C37 139.33 37 139.66 37 140 C27.43 140 17.86 140 8 140 C7.97494385 137.93113525 7.9498877 135.86227051 7.92407227 133.73071289 C7.83898728 126.74197219 7.75055699 119.75327636 7.66066074 112.76459599 C7.60647886 108.54498539 7.55327918 104.32536816 7.50268555 100.10571289 C7.29385462 82.75340468 7.04061953 65.40492266 6.52734375 48.05859375 C6.49024796 46.76961685 6.45315216 45.48063995 6.41493225 44.15260315 C6.29744937 40.43386769 6.1573677 36.7172582 6 33 C5.97069019 32.29903828 5.94138039 31.59807655 5.9111824 30.87587357 C5.81552633 28.70702135 5.70590395 26.53930394 5.59204102 24.37133789 C5.52719009 23.08022598 5.46233917 21.78911407 5.39552307 20.45887756 C4.86371075 15.80814077 3.58072882 12.87109323 1 9 C0.5859375 6.73828125 0.5859375 6.73828125 0.375 4.3125 C0.30023437 3.50425781 0.22546875 2.69601562 0.1484375 1.86328125 C0.09945312 1.24839844 0.05046875 0.63351562 0 0 Z " fill="#9CCB09" transform="translate(705,363)"/>
<path d="M0 0 C0.7601944 -0.00807175 1.52038879 -0.01614349 2.30361938 -0.02445984 C3.91576887 -0.03827508 5.52794728 -0.04900867 7.14013672 -0.05688477 C8.7632729 -0.0683153 10.38637422 -0.08862262 12.00927734 -0.1184082 C22.82493229 -0.31656606 31.9899433 0.56484834 42.2265625 4.23828125 C42.2265625 4.56828125 42.2265625 4.89828125 42.2265625 5.23828125 C37.78322906 5.48064489 34.5064339 5.49009302 30.3984375 3.75 C24.35156949 1.65017702 18.30619206 1.7879418 11.9621582 1.84716797 C9.92785738 1.86317272 7.89556668 1.84729506 5.86132812 1.828125 C-1.59584108 1.84998285 -8.17126891 2.48268854 -15.30932617 4.69287109 C-17.90120186 5.26656081 -19.2984208 5.1099443 -21.7734375 4.23828125 C-20.19045724 3.75794945 -18.60703772 3.27906513 -17.0234375 2.80078125 C-16.14171875 2.53394531 -15.26 2.26710938 -14.3515625 1.9921875 C-13.07539063 1.61900391 -13.07539063 1.61900391 -11.7734375 1.23828125 C-11.22059082 1.06264648 -10.66774414 0.88701172 -10.09814453 0.70605469 C-6.74593241 0.03152849 -3.40647095 0.0348093 0 0 Z " fill="#77A112" transform="translate(434.7734375,304.76171875)"/>
<path d="M0 0 C5.07665074 4.3369102 6.55859082 11.64857992 7.3996582 18.03442383 C8.08111225 28.15498998 8.11475442 38.23567123 8.0625 48.375 C8.05746967 50.09374868 8.05290951 51.8124988 8.04882812 53.53125 C8.0379561 57.68753651 8.02077804 61.8437517 8 66 C7.67 66 7.34 66 7 66 C6.97494385 65.08412109 6.9498877 64.16824219 6.92407227 63.22460938 C6.82748071 59.74293273 6.72836708 56.26134507 6.62768555 52.77978516 C6.58504837 51.28860165 6.54334363 49.79739112 6.50268555 48.30615234 C6.28302537 40.27364078 6.01484649 32.24328534 5.58984375 24.21875 C5.52531006 22.94966797 5.46077637 21.68058594 5.39428711 20.37304688 C4.85651039 15.77247526 3.55460988 12.83191482 1 9 C0.5859375 6.73828125 0.5859375 6.73828125 0.375 4.3125 C0.30023437 3.50425781 0.22546875 2.69601562 0.1484375 1.86328125 C0.09945312 1.24839844 0.05046875 0.63351562 0 0 Z " fill="#101F00" transform="translate(705,363)"/>
<path d="M0 0 C0.66 0.33 1.32 0.66 2 1 C1.3709375 1.556875 0.741875 2.11375 0.09375 2.6875 C-2.6204992 5.10743302 -5.31175851 7.5512283 -8 10 C-8.6909375 10.61101562 -9.381875 11.22203125 -10.09375 11.8515625 C-16.66302616 17.96314319 -21.21952443 25.47662861 -26 33 C-27.65 32.67 -29.3 32.34 -31 32 C-31 30.02 -31 28.04 -31 26 C-29.68 27.32 -28.36 28.64 -27 30 C-26.45214844 29.16339844 -25.90429688 28.32679688 -25.33984375 27.46484375 C-10.28911123 5.14455562 -10.28911123 5.14455562 0 0 Z " fill="#95C219" transform="translate(557,323)"/>
<path d="M0 0 C2.64 0.33 5.28 0.66 8 1 C8.33 2.32 8.66 3.64 9 5 C9.86963379 5.19710571 9.86963379 5.19710571 10.75683594 5.39819336 C12.922744 5.97927339 14.84313535 6.72074552 16.890625 7.62890625 C17.95410156 8.09780273 17.95410156 8.09780273 19.0390625 8.57617188 C20.13347656 9.0644043 20.13347656 9.0644043 21.25 9.5625 C22.36761719 10.0565332 22.36761719 10.0565332 23.5078125 10.56054688 C25.33980368 11.37085066 27.17007345 12.18504434 29 13 C23.68856627 14.77047791 18.84556314 11.32803592 14 9 C9.25230458 6.47414433 4.61845748 3.75331119 0 1 C0 0.67 0 0.34 0 0 Z " fill="#95B40E" transform="translate(376,711)"/>
<path d="M0 0 C0.66 0.33 1.32 0.66 2 1 C-0.88086539 3.50914082 -3.74951793 5.44218791 -7.125 7.1875 C-13.01792159 10.34761647 -17.94478018 14.66290487 -23 19 C-23 18.01 -23 17.02 -23 16 C-22.34 16 -21.68 16 -21 16 C-20.67 15.01 -20.34 14.02 -20 13 C-14.34259146 7.56625645 -7.20920916 3.05621175 0 0 Z " fill="#98CA15" transform="translate(400,314)"/>
<path d="M0 0 C0.66 0.33 1.32 0.66 2 1 C1.54625 1.391875 1.0925 1.78375 0.625 2.1875 C-1.29714043 4.33142587 -2.01474881 6.30698009 -3 9 C-4.14974467 12.09546642 -4.56901693 12.79476997 -7.625 14.25 C-8.40875 14.4975 -9.1925 14.745 -10 15 C-10 10.21818516 -7.66786578 7.7004446 -4.4375 4.3125 C-3.633125 3.549375 -2.82875 2.78625 -2 2 C-1.34 1.34 -0.68 0.68 0 0 Z " fill="#64810E" transform="translate(374,333)"/>
<path d="M0 0 C6.51203103 0.11628627 11.60441341 1.85391536 17.5 4.4375 C18.21865234 4.75017822 18.93730469 5.06285645 19.67773438 5.38500977 C24.86649242 7.73298485 24.86649242 7.73298485 26 10 C23.92695309 9.30898436 21.85396872 8.61778069 19.78125 7.92578125 C17.82394012 7.27426097 15.86550017 6.62613074 13.90625 5.98046875 C12.8646875 5.63628906 11.823125 5.29210937 10.75 4.9375 C9.77546875 4.61652344 8.8009375 4.29554688 7.796875 3.96484375 C5.16016446 3.05525227 2.57975055 2.05920415 0 1 C0 0.67 0 0.34 0 0 Z " fill="#8EAB12" transform="translate(637,307)"/>
<path d="M0 0 C0.33 1.32 0.66 2.64 1 4 C0.01 4.33 -0.98 4.66 -2 5 C-2.35626889 6.32738893 -2.68574635 7.66204128 -3 9 C-6.14990193 13.4877635 -9.48141541 17.66216131 -15 19 C-11.39478058 14.03456959 -7.62278918 9.32215105 -3.515625 4.76171875 C-1.8229417 2.86673205 -1.8229417 2.86673205 0 0 Z " fill="#424141" transform="translate(696,659)"/>
<path d="M0 0 C3.88146462 1.3140375 6.18819881 2.84763705 9 5.8125 C9.68449219 6.5240625 10.36898438 7.235625 11.07421875 7.96875 C11.70972656 8.6390625 12.34523438 9.309375 13 10 C13.928125 10.928125 14.85625 11.85625 15.8125 12.8125 C16.8953125 13.8953125 16.8953125 13.8953125 18 15 C18.598125 15.556875 19.19625 16.11375 19.8125 16.6875 C21 18 21 18 21 20 C20.34 20 19.68 20 19 20 C17.6953125 18.63671875 17.6953125 18.63671875 16.125 16.6875 C12.38579112 12.25760922 8.23401141 8.43950475 3.91259766 4.59448242 C2.59257629 3.41377563 1.29408006 2.20908301 0 1 C0 0.67 0 0.34 0 0 Z " fill="#91C318" transform="translate(500,322)"/>
<path d="M0 0 C4.84191889 0.54855577 8.36082402 1.9806848 12.625 4.3125 C13.73101562 4.90675781 14.83703125 5.50101562 15.9765625 6.11328125 C18.76087759 7.8507802 20.80787067 9.57796442 23 12 C18.3210904 10.20329871 13.7915585 8.11377765 9.25 6 C8.47011719 5.64421875 7.69023437 5.2884375 6.88671875 4.921875 C5.77490234 4.40367187 5.77490234 4.40367187 4.640625 3.875 C3.96547852 3.56304687 3.29033203 3.25109375 2.59472656 2.9296875 C1 2 1 2 0 0 Z " fill="#97B918" transform="translate(477,310)"/>
<path d="M0 0 C3.02700579 2.52395038 3.97178939 5.10947343 5.1875 8.8125 C5.53167969 9.82957031 5.87585938 10.84664063 6.23046875 11.89453125 C7.01362934 15.05500165 7.14052275 17.75828551 7 21 C5.87982628 18.83966496 4.88555195 16.70672687 4 14.4375 C3.01548894 11.80940374 3.01548894 11.80940374 1 9 C0.5859375 6.73828125 0.5859375 6.73828125 0.375 4.3125 C0.30023437 3.50425781 0.22546875 2.69601562 0.1484375 1.86328125 C0.09945312 1.24839844 0.05046875 0.63351562 0 0 Z " fill="#83AD12" transform="translate(705,363)"/>
<path d="M0 0 C-1.49097658 3.7952131 -3.75700849 5.61042731 -7 8 C-7.66 7.67 -8.32 7.34 -9 7 C-8.62607279 4.28902773 -8.18642373 3.17999533 -6.1875 1.25 C-4 0 -4 0 0 0 Z " fill="#4A700B" transform="translate(697,700)"/>
<path d="M0 0 C1.98 0 3.96 0 6 0 C6.99 2.31 7.98 4.62 9 7 C5.56072421 5.7580393 2.74792181 4.44259716 0 2 C0 1.34 0 0.68 0 0 Z " fill="#52800A" transform="translate(363,701)"/>
<path d="M0 0 C0.33 0.99 0.66 1.98 1 3 C-0.9375 6.1875 -0.9375 6.1875 -3 9 C-4.65 8.67 -6.3 8.34 -8 8 C-8 6.02 -8 4.04 -8 2 C-6.68 3.32 -5.36 4.64 -4 6 C-2.68 4.02 -1.36 2.04 0 0 Z " fill="#88A914" transform="translate(534,347)"/>
<path d="M0 0 C1.67542976 0.28604898 3.34385343 0.61781233 5 1 C4.41734375 1.10183594 3.8346875 1.20367188 3.234375 1.30859375 C0.62780725 2.11517153 -0.73535414 3.24157009 -2.75 5.0625 C-3.36359375 5.61035156 -3.9771875 6.15820312 -4.609375 6.72265625 C-5.06828125 7.14417969 -5.5271875 7.56570313 -6 8 C-6.66 7.67 -7.32 7.34 -8 7 C-7.3125 4.5625 -7.3125 4.5625 -6 2 C-3.4375 1.25 -3.4375 1.25 -1 1 C-0.67 0.67 -0.34 0.34 0 0 Z " fill="#81A913" transform="translate(528,699)"/>
<path d="M0 0 C0.99 0.33 1.98 0.66 3 1 C1.81775332 3.36449336 0.45903319 4.43426315 -1.5625 6.125 C-2.20316406 6.66382813 -2.84382812 7.20265625 -3.50390625 7.7578125 C-3.99761719 8.16773438 -4.49132812 8.57765625 -5 9 C-5 4.61031544 -2.87194899 3.23094261 0 0 Z " fill="#403F3F" transform="translate(529,657)"/>
<path d="M0 0 C0.99 0.66 1.98 1.32 3 2 C0 5 -3 8 -6 11 C-4.54955729 6.89041233 -2.48889248 3.56741255 0 0 Z " fill="#1F2A03" transform="translate(364,347)"/>
<path d="M0 0 C0.99 0.33 1.98 0.66 3 1 C1.68 2.32 0.36 3.64 -1 5 C-1.99 4.67 -2.98 4.34 -4 4 C-3.67 3.01 -3.34 2.02 -3 1 C-2.01 1.33 -1.02 1.66 0 2 C0 1.34 0 0.68 0 0 Z " fill="#141E04" transform="translate(518,704)"/>
<path d="M0 0 C0.66 0.33 1.32 0.66 2 1 C2 1.66 2 2.32 2 3 C0.1875 4.6875 0.1875 4.6875 -2 6 C-2.99 5.67 -3.98 5.34 -5 5 C-3.35 3.35 -1.7 1.7 0 0 Z " fill="#131F02" transform="translate(556,325)"/>
</svg>
